<svg width="90" height="91" viewBox="0 0 90 91" fill="none" xmlns="http://www.w3.org/2000/svg">
<path d="M78.4623 15.8392L77.952 16.2712C77.6569 16.521 77.2442 16.5784 76.8922 16.4185L73.556 14.9029L71.6518 13.6938C71.5233 13.6122 71.4151 13.5024 71.3355 13.3726L70.5439 12.0826C70.5161 12.0373 70.4848 11.9943 70.4501 11.954L68.7844 10.0149L66.5648 7.75418C66.5177 7.70619 66.4659 7.66308 66.4101 7.6255L64.9341 6.63077C64.769 6.51948 64.5744 6.46002 64.3753 6.46002H62.6756C62.4892 6.46002 62.3065 6.51212 62.1481 6.61044L61.1807 7.21107C61.0353 7.30134 60.9155 7.42742 60.8327 7.57723L60.1974 8.72766C60.1331 8.84406 60.0927 8.97211 60.0785 9.10432L59.8137 11.5702L59.0503 17.1247L58.8723 19.5072C58.8638 19.6214 58.8357 19.7333 58.7893 19.838L57.3325 23.1236L56.1221 26.9169C56.102 26.98 56.0757 27.0409 56.0435 27.0988L55.1481 28.7096C55.0783 28.8353 54.9822 28.9444 54.8664 29.0295L53.2289 30.2334L46.6441 34.1215L45.3802 34.752C45.0045 34.9395 44.9055 35.4304 45.179 35.7488C45.2014 35.7748 45.2216 35.8026 45.2395 35.8318L45.6321 36.4716C45.6704 36.534 45.7018 36.6005 45.7255 36.6697L46.0308 37.5579C46.0577 37.6364 46.0715 37.7188 46.0715 37.8018V37.8669C46.0715 38.1512 45.8895 38.4035 45.6197 38.4932C45.4796 38.5398 45.3279 38.5381 45.1889 38.4883L44.1889 38.1301C44.1716 38.1239 44.155 38.1158 44.1395 38.106L43.6821 37.8155C43.5555 37.7352 43.4099 37.8862 43.4948 38.0097L44.3537 39.1206L45.1458 40.2475C45.1902 40.3107 45.2271 40.3788 45.2558 40.4505L45.8806 42.009L46.4183 43.9911C46.4415 44.0764 46.4532 44.1645 46.4532 44.2529V44.7101C46.4532 44.9008 46.376 45.0833 46.2391 45.2161C46.0243 45.4244 45.7014 45.4744 45.4337 45.3409L45.2944 45.2714C45.24 45.2442 45.1884 45.2118 45.1403 45.1745L44.0674 44.3419L43.1131 43.7864L42.2011 43.2556C42.0484 43.1667 41.8748 43.1199 41.6981 43.1199H41.459C41.3564 43.1199 41.2565 43.1577 41.1792 43.2252C41.0284 43.3568 40.9897 43.5781 41.0892 43.7518C41.1024 43.7748 41.1133 43.799 41.1219 43.8241L41.2009 44.054C41.2653 44.2414 41.2706 44.444 41.2161 44.6345C41.1474 44.8744 40.9886 45.0785 40.7728 45.204L40.4315 45.4027C40.2515 45.5075 40.0432 45.5535 39.8357 45.5341L37.7689 45.3417L36.1174 45.2501C35.8913 45.2376 35.6693 45.3139 35.4988 45.4628C35.4222 45.5297 35.358 45.6094 35.3091 45.6984L33.8561 48.3411L31.5658 53.6734L29.9434 58.006L27.9393 64.5603L26.6987 70.7814L25.9353 74.2252L25.3627 77.669L24.8331 79.4156C24.8046 79.5097 24.7901 79.6075 24.7901 79.7058V80.7236C24.7901 80.8342 24.8084 80.944 24.8443 81.0485L25.1134 81.8314C25.152 81.9439 25.2104 82.0486 25.2858 82.1405L27.1759 84.4455L28.5095 85.9979C28.6603 86.1735 28.5356 86.4451 28.3041 86.4451C28.0195 86.4451 27.9276 86.828 28.1813 86.9571L28.644 87.1928C28.6829 87.2126 28.7249 87.2259 28.7682 87.232L31.8521 87.6671L35.6823 88.2108C35.7372 88.2186 35.7927 88.2219 35.8481 88.2205L40.1547 88.1115L43.8765 87.8893L47.3121 87.4449L53.7612 87.3377C53.9133 87.3352 54.0628 87.298 54.1984 87.2289L54.6888 86.9792C55.1566 86.7409 55.729 86.905 55.9996 87.3549L56.011 87.3739C56.1253 87.564 56.2995 87.7106 56.5062 87.7909L57.6188 88.2226L62.6308 89.7352C62.7245 89.7635 62.8219 89.7778 62.9198 89.7778H71.2656H73.2776C73.3358 89.7778 73.394 89.7727 73.4513 89.7626L76.3015 89.2599C76.4418 89.2352 76.5752 89.1807 76.6928 89.1002L78.0286 88.1855C78.1004 88.1364 78.1655 88.078 78.2222 88.012L78.7802 87.3624C78.9768 87.1335 79.2663 87.0057 79.5679 87.0144L82.8311 87.1094C82.8825 87.1109 82.934 87.1084 82.9851 87.102L86.1676 86.7015C86.3455 86.6791 86.5141 86.6093 86.6558 86.4993L88.2871 85.2334C88.3903 85.1532 88.4768 85.0537 88.5418 84.9403L89.2655 83.6766C89.3522 83.5253 89.3978 83.354 89.3978 83.1796V81.445C89.3978 81.2293 89.328 81.0194 89.1989 80.8466L87.4891 78.5577L85.976 76.7036C85.7861 76.4709 85.5016 76.3359 85.2013 76.3359H84.817H83.1782C83.0015 76.3359 82.8279 76.3827 82.6752 76.4716L81.2653 77.2922C81.2156 77.3212 81.1635 77.3457 81.1096 77.3657L79.2384 78.0588C79.1408 78.0949 79.0381 78.1156 78.9341 78.1201L77.5575 78.1795C76.9888 78.204 76.5144 77.7496 76.5144 77.1804V76.5531C76.5144 76.4826 76.5069 76.4122 76.4921 76.3432L76.1327 74.6695L75.7509 72.8921L75.1148 70.5647C75.0936 70.4872 75.0632 70.4126 75.0242 70.3425L74.0332 68.5596L72.7925 65.6712L71.7428 63.4494L71.1457 62.4565C71.0986 62.3782 71.041 62.3067 70.9745 62.2441L69.2013 60.5731C69.1149 60.4917 69.0147 60.4263 68.9053 60.38L67.0639 59.6005C67.0022 59.5744 66.9381 59.5545 66.8725 59.5413L64.8744 59.1368C64.8091 59.1235 64.7426 59.1169 64.676 59.1169H62.577C62.5163 59.1169 62.4558 59.1224 62.3962 59.1334L60.7436 59.4371C60.6964 59.4458 60.6498 59.4579 60.6042 59.4733L57.8158 60.4156C57.7483 60.4385 57.6834 60.4684 57.6223 60.505L54.3741 62.4496L50.5568 65.449L48.0471 67.3967C48.0025 67.4313 47.961 67.4696 47.9229 67.5111L46.939 68.5849C46.6806 68.8669 46.2339 68.8597 45.9847 68.5696C45.9164 68.4901 45.8687 68.3949 45.8459 68.2926L45.2126 65.449L44.8243 63.0082C44.7691 62.6616 44.8997 62.3115 45.1684 62.0856L46.0686 61.3288C46.2744 61.1558 46.2855 60.8427 46.0925 60.6555C45.9637 60.5305 45.9206 60.3414 45.9826 60.1729L46.4099 59.0123C46.4387 58.9342 46.4771 58.86 46.5242 58.7914L48.3205 56.1776C48.348 56.1375 48.3726 56.0955 48.394 56.0519L49.507 53.7845L50.8166 50.518C50.8342 50.474 50.8566 50.4321 50.8835 50.3931L51.2739 49.825C51.4115 49.6247 51.7185 49.6666 51.7974 49.8964L53.0739 52.7621C53.1134 52.8508 53.1656 52.9332 53.2288 53.0068L55.3284 55.4509L56.7599 57.1172L57.7698 58.0215C57.9184 58.1546 58.1108 58.2282 58.3103 58.2282C58.3582 58.2282 58.406 58.2324 58.4531 58.2408L59.3114 58.3945C59.5141 58.4309 59.7231 58.4037 59.9098 58.3167L60.5356 58.0253C60.5632 58.0125 60.5893 57.9965 60.6134 57.9779C60.8564 57.7893 61.2127 57.9276 61.2648 58.2307L61.2785 58.3106C61.3148 58.5219 61.4934 58.6793 61.7075 58.6889L63.8219 58.7836L67.4483 59.1169L69.7292 59.5417C69.799 59.5547 69.8671 59.5751 69.9326 59.6025L72.2199 60.5611L74.215 61.2679C74.3468 61.3146 74.4869 61.3331 74.6263 61.3223L75.5345 61.2518C75.7376 61.236 75.931 61.1587 76.0888 61.03L76.5284 60.6718C76.7047 60.5282 76.8267 60.3288 76.8744 60.1066L76.9693 59.665C76.9841 59.596 76.9916 59.5256 76.9916 59.4551V58.9047C76.9916 58.7519 76.9565 58.6012 76.8892 58.4641L76.2281 57.1172L74.7632 54.5593C74.722 54.4874 74.6721 54.4209 74.6145 54.3614L73.154 52.8501C73.0419 52.7342 72.9035 52.6471 72.7505 52.5962L70.5024 51.8485C70.3774 51.8069 70.2659 51.7321 70.18 51.6321C69.9739 51.3922 69.9463 51.0466 70.1117 50.777L70.2209 50.5991C70.2807 50.5016 70.3568 50.4152 70.4458 50.3434L72.7212 48.5097C72.7686 48.4714 72.8125 48.4289 72.8522 48.3827L74.7012 46.2304L75.338 45.3964C75.4215 45.287 75.4816 45.1616 75.5144 45.0279L75.7967 43.8777C75.8295 43.7442 75.8344 43.6054 75.8111 43.47L75.4847 41.5701C75.4714 41.4926 75.449 41.417 75.4179 41.3448L74.9694 40.3006C74.9183 40.1816 74.8446 40.0737 74.7523 39.9828L73.7412 38.9869C73.6816 38.9281 73.6148 38.8771 73.5425 38.835L72.6254 38.3012C72.5463 38.2552 72.4613 38.2203 72.3728 38.1974L71.7705 38.0416C71.6887 38.0204 71.6046 38.0097 71.5201 38.0097H70.7401C70.6456 38.0097 70.5515 38.0231 70.4607 38.0495L69.9322 38.2034C69.867 38.2223 69.8039 38.2479 69.7439 38.2796L69.1274 38.6058C68.9067 38.7226 68.7377 38.9177 68.6536 39.1527L68.3657 39.957C68.327 40.0651 68.3072 40.1791 68.3072 40.294V41.5811C68.3072 41.7168 68.2796 41.8511 68.226 41.9758L67.7346 43.1199L66.9778 44.6861C66.9106 44.825 66.8123 44.9465 66.6905 45.0411L64.7055 46.5815C64.6259 46.6433 64.5373 46.6927 64.4429 46.7281L61.9132 47.6746L59.7155 48.8471C59.6547 48.8796 59.5868 48.8966 59.5178 48.8966C59.3499 48.8966 59.1982 48.7966 59.1319 48.6423L58.8107 47.8944C58.7796 47.8221 58.7572 47.7465 58.7439 47.669L58.3822 45.5638L58.0005 43.7864L57.8266 43.1114C57.7551 42.8342 57.8059 42.5397 57.9661 42.3024L58.6825 41.2409C58.7365 41.1609 58.8019 41.0891 58.8765 41.0278L60.3297 39.8337C60.3674 39.8027 60.4028 39.769 60.4356 39.7328L62.1995 37.7875L63.4773 36.579C63.6388 36.4263 63.8466 36.3317 64.0679 36.3102L64.476 36.2706C64.7301 36.246 64.984 36.3194 65.1857 36.4759L66.3031 37.3432L67.3797 38.1786C67.4254 38.2141 67.474 38.2455 67.5251 38.2725L68.2323 38.6467C68.3805 38.7251 68.5642 38.6719 68.6475 38.5264C68.6747 38.479 68.7138 38.4396 68.761 38.4121L69.6009 37.9233C69.7537 37.8344 69.9272 37.7875 70.104 37.7875H71.651C71.7747 37.7875 71.8974 37.8105 72.0127 37.8552L73.4039 38.395C73.5046 38.4341 73.5984 38.4893 73.6815 38.5584L74.3192 39.0886C74.6591 39.3713 75.1443 39.3972 75.5124 39.1523L75.5601 39.1206L76.9055 38.1809C76.9627 38.1409 77.024 38.1071 77.0883 38.0799L78.9944 37.273C79.0587 37.2458 79.1199 37.2119 79.1772 37.1719L80.4386 36.2909C80.4944 36.2519 80.5461 36.2073 80.5929 36.1579L81.5723 35.1213L82.27 34.4107C82.3138 34.3661 82.3532 34.3176 82.3879 34.2657L82.9527 33.4203C82.9867 33.3695 83.0159 33.3156 83.0401 33.2594L83.7223 31.6711C83.7522 31.6016 83.7741 31.5289 83.7875 31.4544L84.149 29.4557L84.3644 28.2019C84.3955 28.0211 84.6124 27.944 84.7506 28.0647C84.7934 28.1021 84.8483 28.1227 84.9052 28.1227H85.2244C85.3315 28.1227 85.4355 28.087 85.5201 28.0214C85.62 27.9439 85.6854 27.8303 85.7024 27.7051L85.9622 25.7898L86.3439 24.2345L87.0639 22.3487C87.0928 22.2731 87.1124 22.1942 87.1222 22.1139L87.2982 20.6796V18.8972C87.2982 18.8266 87.2908 18.7563 87.276 18.6873L86.9165 17.0136L86.3849 15.5697C86.3577 15.4957 86.3218 15.4252 86.278 15.3597L85.8848 14.7712C85.7501 14.5696 85.5468 14.4239 85.3128 14.361L84.5627 14.1595C84.4781 14.1368 84.3909 14.1253 84.3033 14.1253H83.1117C83.04 14.1253 82.9685 14.133 82.8984 14.1483L81.4769 14.4585L80.0816 14.8646C79.9942 14.89 79.9108 14.9272 79.8335 14.9752L78.581 15.7528C78.5394 15.7786 78.4997 15.8075 78.4623 15.8392Z" fill="white" stroke="white" stroke-linecap="round" stroke-linejoin="round"/>
<path d="M77.1824 29.3446L77.761 30.4392C77.8747 30.6543 78.0981 30.7888 78.3414 30.7888C78.4574 30.7888 78.5713 30.7581 78.6715 30.6997L79.0911 30.4555L79.7171 29.9697C79.8708 29.8504 79.9997 29.7021 80.0965 29.5332C80.2495 29.2659 80.316 28.9578 80.2867 28.6513L80.28 28.5813C80.2514 28.2809 80.1437 27.9934 79.968 27.748L79.8467 27.5785C79.7884 27.4971 79.7222 27.4217 79.649 27.3535C79.4107 27.1317 79.1069 26.9932 78.7832 26.959L78.5025 26.9293C78.3231 26.9103 78.142 26.9157 77.964 26.9452L77.8255 26.9683C77.6527 26.997 77.4865 27.0569 77.3351 27.145C77.2337 27.2041 77.1398 27.2752 77.0556 27.357L76.7515 27.652C76.6591 27.7416 76.5954 27.8565 76.5684 27.9823C76.5337 28.1438 76.5618 28.3125 76.6469 28.4541L77.1824 29.3446Z" fill="#BABABA" fill-opacity="0.78"/>
<path d="M70.025 22.2349L69.7616 22.4648C69.6843 22.5322 69.6282 22.6206 69.6 22.7192C69.5663 22.837 69.5742 22.9629 69.6226 23.0754C69.6363 23.1075 69.6532 23.138 69.6729 23.1668L69.8704 23.4541C69.9716 23.6014 70.1104 23.7188 70.2724 23.7942L70.4328 23.8689C70.479 23.8904 70.5267 23.9084 70.5755 23.9226L71.1612 24.093C71.2278 24.1124 71.2996 24.1036 71.3596 24.0687C71.4213 24.0328 71.465 23.9725 71.48 23.9027L71.5014 23.8033C71.5332 23.6551 71.6327 23.5303 71.7701 23.4663L71.9083 23.402C71.9879 23.3649 72.0587 23.3113 72.1159 23.2447C72.2415 23.0984 72.2916 22.9017 72.2511 22.7132L72.2199 22.5681L72.172 22.3451C72.1413 22.2022 72.0611 22.0746 71.9456 21.985C71.8748 21.93 71.793 21.8911 71.7057 21.8708L71.4729 21.8165C71.3986 21.7992 71.3225 21.7905 71.2462 21.7905H71.0264C70.9319 21.7905 70.8378 21.8039 70.747 21.8303L70.6603 21.8556C70.5556 21.886 70.4565 21.9334 70.3671 21.9959L70.025 22.2349Z" fill="white" stroke="white" stroke-linecap="round" stroke-linejoin="round"/>
<path d="M52.0405 51.7126L51.8262 51.0153C51.8156 50.9809 51.8025 50.9474 51.7869 50.915L51.2375 49.7775C51.1171 49.528 50.7484 49.5752 50.6947 49.847C50.6914 49.8641 50.6864 49.8809 50.68 49.8971L50 51.6182L49.0517 54.0182L47.7586 56.3091L46.2931 58.7091L45.7204 59.7238C45.3984 60.2941 45.8105 61 46.4655 61H48.1253C48.7393 61 49.3496 60.9058 49.935 60.7206L50.5145 60.5372C51.1442 60.338 51.7367 60.0362 52.2681 59.6439L53.0371 59.0762C53.3676 58.8323 53.6694 58.5515 53.9365 58.2395L54.4487 57.6412C54.5849 57.482 54.6877 57.297 54.7509 57.0972C54.9067 56.6043 54.8081 56.0662 54.4875 55.6606L54.3966 55.5455L53.3621 54.0182L53.2475 53.8863C52.6978 53.254 52.2866 52.5135 52.0405 51.7126Z" fill="#BABABA" fill-opacity="0.3"/>
<path d="M53.776 53.7378C53.7648 53.7212 53.7526 53.7053 53.7394 53.6902L53.6248 53.5583L53.2475 53.8863L53.6248 53.5583C53.1209 52.9786 52.7441 52.2999 52.5184 51.5657L52.3042 50.8684C52.2862 50.8098 52.2637 50.7527 52.2371 50.6976L52.2371 50.6976L51.6878 49.56C51.3615 48.8844 50.3692 49.005 50.2084 49.73L49.535 51.4344L48.5994 53.8024L47.3274 56.0558L45.8664 58.4485L45.8577 58.4633L45.285 59.478C44.7749 60.3817 45.4278 61.5 46.4655 61.5H48.1253C48.7904 61.5 49.4517 61.3979 50.0858 61.1973L50.6653 61.014C51.3475 60.7981 51.9893 60.4712 52.565 60.0462L53.3341 59.4785C53.695 59.212 54.0246 58.9055 54.3163 58.5647L54.8285 57.9664C55.0085 57.7562 55.1442 57.5118 55.2276 57.2479C55.4334 56.5969 55.3031 55.8863 54.8798 55.3506L54.8002 55.2499L53.776 53.7378Z" stroke="#BABABA" stroke-opacity="0.3" stroke-linecap="round" stroke-linejoin="round"/>
<g clip-path="url(#clip0_2209_3291)">
<path d="M56.3782 60.0056L56.0902 59.5985C55.537 58.8166 54.4196 58.7059 53.7237 59.364C53.5858 59.4944 53.4255 59.5988 53.2505 59.6722L51.6619 60.3379C51.3077 60.4863 50.9401 60.6004 50.5641 60.6786L49.0614 60.9909C48.6597 61.0744 48.2505 61.1165 47.8403 61.1165H45.7292C45.2776 61.1165 44.846 61.3025 44.5358 61.6307C44.1809 62.0064 44.0235 62.5272 44.111 63.0365L44.2583 63.8938L45.0217 66.5599L45.3975 68.8567C45.4015 68.8808 45.4035 68.9051 45.4035 68.9294C45.4035 69.3114 45.8493 69.5196 46.1422 69.2745L48.4573 67.3376L50.8431 65.0047L53.1296 62.8581C53.5742 62.4408 54.0878 62.104 54.6477 61.8626L56.1429 61.2179C56.295 61.1524 56.4197 61.036 56.4955 60.8888C56.6015 60.6832 56.6015 60.439 56.4955 60.2333L56.3782 60.0056Z" fill="#BABABA" fill-opacity="0.3"/>
<path d="M56.6004 59.8911C56.5951 59.8807 56.589 59.8707 56.5823 59.8612L56.2943 59.4541C55.6532 58.548 54.3583 58.4197 53.5519 59.1824C53.436 59.2921 53.3011 59.3799 53.1539 59.4416L51.5653 60.1073C51.2259 60.2496 50.8735 60.3589 50.5132 60.4338L49.0105 60.7462C48.6256 60.8262 48.2334 60.8665 47.8403 60.8665H45.7292C45.2089 60.8665 44.7115 61.0808 44.3541 61.459C43.9451 61.8918 43.7638 62.4919 43.8646 63.0788L44.0119 63.9361C44.0134 63.945 44.0154 63.9539 44.0179 63.9626L44.7774 66.6147L45.1508 68.8971C45.1526 68.9078 45.1535 68.9186 45.1535 68.9294C45.1535 69.5235 45.847 69.8475 46.3026 69.4663L48.6177 67.5293C48.6227 67.5252 48.6275 67.5208 48.6321 67.5163L51.0161 65.1852L53.3007 63.0404C53.7241 62.6429 54.2134 62.3221 54.7467 62.0921L56.2419 61.4475C56.4472 61.359 56.6154 61.202 56.7178 61.0033C56.8608 60.7258 56.8608 60.3963 56.7178 60.1188L56.6004 59.8911Z" stroke="#BABABA" stroke-opacity="0.3" stroke-width="0.5" stroke-linecap="round" stroke-linejoin="round"/>
<path d="M54.565 58.4503L55.8056 56.8951L55.4238 57.8949L54.0878 59.1169L53.1335 59.7834L51.1294 60.7832L48.6482 61.4498L44.7354 61.1165H45.5943H46.6441H48.0756H49.2207L52.2746 60.1167L54.565 58.4503Z" fill="black" stroke="black" stroke-width="0.5" stroke-linecap="round" stroke-linejoin="round"/>
<path d="M55.6685 58.6205L55.3284 58.2203L55.5924 58.6526L55.873 59.1384L56.2535 59.9445L56.4524 60.2835L56.6514 60.6224L56.1037 59.4639L55.6685 58.6205Z" fill="black" stroke="black" stroke-linecap="round" stroke-linejoin="round"/>
<path d="M40.6318 77.5873L41.5404 75.0659L43.1305 72.4298L45.7428 69.3353L47.5362 67.8874L48.0143 67.5015L51.8759 65.7823H53.9203L56.1918 66.1261L59.3719 67.5015L61.1891 69.3353L62.7792 71.2837L64.4828 73.4613L66.5272 76.212V78.8481V80.835L66.5845 80.8906H68.7222L71.108 79.8908L73.1121 78.8481H75.6887L77.5019 80.8906L78.6471 82.1718L79.6015 83.6678V85.7786L78.6471 87.7782L76.7385 89.2777L73.3983 89.8889H68.7222H62.7792L56.1918 87.7782L55.0753 85.7786V82.1718L56.1918 80.8906L55.4571 82.5569L55.2662 85.2231L55.8388 86.6673L56.5068 87.7782L58.6063 88.3336L60.7058 89.0002L63.2825 89.6667H67.4815H72.8258L76.7385 89.0002L78.6471 87.4449L79.4106 85.7786V83.6678L78.838 82.7791L77.8837 81.5571L76.7385 80.224L75.6887 79.1131H73.1121L72.2532 79.5575L71.2034 80.113L70.1537 80.5573L69.1993 80.8906L67.9587 81.1128H66.8135L66.5845 80.8906H66.5272V80.835L66.2409 80.5573V78.8481V76.5581L65.9546 75.7804L65.0003 74.4473L63.8551 73.0032L62.4236 71.1146L60.7058 69.115L58.9881 67.5015L56.984 66.671L55.0753 66.1261L53.3576 65.8934L51.3535 66.1261L49.4448 67.0043L47.5362 67.8874L46.391 69.115L44.9595 70.5592L44.0052 71.7812L42.6691 73.4613L40.6318 77.5873Z" fill="black"/>
<path d="M47.5362 67.8874L45.7428 69.3353L43.1305 72.4298L41.5404 75.0659L40.6318 77.5873L42.6691 73.4613L44.0052 71.7812L44.9595 70.5592L46.391 69.115L47.5362 67.8874ZM47.5362 67.8874L48.0143 67.5015L51.8759 65.7823H53.9203L56.1918 66.1261L59.3719 67.5015L61.1891 69.3353L62.7792 71.2837L64.4828 73.4613L66.5272 76.212V78.8481V80.8906H68.7222L71.108 79.8908L73.1121 78.8481H75.6887L77.5019 80.8906L78.6471 82.1718L79.6015 83.6678V85.7786L78.6471 87.7782L76.7385 89.2777L73.3983 89.8889H68.7222H62.7792L56.1918 87.7782L55.0753 85.7786V82.1718L56.1918 80.8906L55.4571 82.5569L55.2662 85.2231L55.8388 86.6673L56.5068 87.7782L58.6063 88.3336L60.7058 89.0002L63.2825 89.6667H67.4815H72.8258L76.7385 89.0002L78.6471 87.4449L79.4106 85.7786V83.6678L78.838 82.7791L77.8837 81.5571L76.7385 80.224L75.6887 79.1131H73.1121L72.2532 79.5575L71.2034 80.113L70.1537 80.5573L69.1993 80.8906L67.9587 81.1128H66.8135L66.2409 80.5573V78.8481V76.5581L65.9546 75.7804L65.0003 74.4473L63.8551 73.0032L62.4236 71.1146L60.7058 69.115L58.9881 67.5015L56.984 66.671L55.0753 66.1261L53.3576 65.8934L51.3535 66.1261L49.4448 67.0043L47.5362 67.8874Z" stroke="black" stroke-width="0.5" stroke-linecap="round" stroke-linejoin="round"/>
<path d="M76.419 78.2673L76.4015 78.1948L76.1327 77.934V77.0794L76.4015 78.1948L76.4762 78.2673H78.6139L80.9997 77.2675L83.0038 76.2248H85.5805L87.3937 78.2673L88.5389 79.5485L89.4932 81.0446V83.1553L88.5389 85.1549L86.6302 86.6545L83.2901 87.2656L79.6304 87.0435H82.7175L86.6302 86.3769L88.5389 84.8217L89.3023 83.1553V81.0446L88.7297 80.1559L87.7754 78.9339L86.6302 77.6008L85.5805 76.4899H83.0038L82.1449 76.9342L81.0951 77.4897L80.0454 77.934L79.0911 78.2673L77.8504 78.4895H76.7053L76.4762 78.2673H76.419Z" fill="black"/>
<path d="M76.1327 77.0794L76.419 78.2673H78.6139L80.9997 77.2675L83.0038 76.2248H85.5805L87.3937 78.2673L88.5389 79.5485L89.4932 81.0446V83.1553L88.5389 85.1549L86.6302 86.6545L83.2901 87.2656L79.6304 87.0435H82.7175L86.6302 86.3769L88.5389 84.8217L89.3023 83.1553V81.0446L88.7297 80.1559L87.7754 78.9339L86.6302 77.6008L85.5805 76.4899H83.0038L82.1449 76.9342L81.0951 77.4897L80.0454 77.934L79.0911 78.2673L77.8504 78.4895H76.7053L76.1327 77.934V77.0794Z" stroke="black" stroke-width="0.5" stroke-linecap="round" stroke-linejoin="round"/>
<path d="M50.2705 65.449L48.4573 67.4486L51.3203 64.8936L54.1695 62.6824C54.1786 62.6753 54.1884 62.669 54.1986 62.6636L57.3325 61.0054L60.368 59.7907C60.3802 59.7859 60.3928 59.7822 60.4057 59.7798L62.754 59.3424C62.7661 59.3402 62.7783 59.339 62.7906 59.339H64.9429C64.959 59.339 64.975 59.341 64.9905 59.3448L68.5429 60.2154C68.5761 60.2235 68.6066 60.24 68.6316 60.2633L70.4849 61.9891C70.4964 61.9998 70.5065 62.0118 70.5152 62.0249L72.1133 64.4323C72.1207 64.4436 72.127 64.4555 72.1321 64.468L72.888 66.3377L74.224 69.2261L75.26 71.1994C75.2691 71.2169 75.2756 71.2355 75.2793 71.2549L75.6555 73.2253L76.0345 75.4313C76.0363 75.4418 76.039 75.4523 76.0425 75.4624L76.2038 75.932C76.2816 76.1583 76.6189 76.0819 76.5917 75.8443L76.4208 74.3519C76.4196 74.3415 76.4175 74.3312 76.4147 74.321L75.2793 70.2456C75.2756 70.2325 75.2706 70.2198 75.2644 70.2077L73.8423 67.4486L72.133 63.6902C72.1273 63.6778 72.1205 63.666 72.1124 63.655L70.5153 61.4678C70.5066 61.4558 70.4965 61.4448 70.4853 61.4351L68.6302 59.8154C68.6061 59.7944 68.5773 59.7794 68.5462 59.7718L64.9905 58.9004C64.975 58.8966 64.959 58.8947 64.9429 58.8947H61.8491C61.8284 58.8947 61.8077 58.8979 61.788 58.9043L59.0503 59.7834L55.9185 60.9986C55.9069 61.0031 55.8957 61.0087 55.8851 61.0154L53.2456 62.6613C53.2345 62.6683 53.2241 62.6763 53.2145 62.6852L50.2705 65.449Z" fill="black" stroke="black" stroke-width="0.1" stroke-linecap="round" stroke-linejoin="round"/>
<path d="M30.0388 87.4449L27.9393 86.8895L29.3552 87.4388C29.3656 87.4429 29.3763 87.446 29.3873 87.4483L30.9932 87.7782L33.4744 88.0004L36.7191 88.4447H38.8032C38.8135 88.4447 38.8237 88.4439 38.8339 88.4424L41.6663 88.0027C41.6765 88.0012 41.6868 88.0004 41.697 88.0004H45.1961C45.2071 88.0004 45.218 87.9995 45.2289 87.9977L48.5364 87.4476C48.5473 87.4458 48.5582 87.4449 48.5692 87.4449H52.2746H55.0457C55.104 87.4449 55.1594 87.4195 55.1974 87.3752L55.5664 86.9457C55.5976 86.9094 55.6147 86.8632 55.6147 86.8154V86.5551C55.6147 86.4367 55.5125 86.3443 55.3947 86.3561L50.0796 86.8895L46.3578 87.4449L40.6318 88.0004H34.715L30.0388 87.4449Z" fill="black" stroke="black" stroke-width="0.5" stroke-linecap="round" stroke-linejoin="round"/>
</g>
<path d="M65.7968 14.2395L67.494 13.4523L66.2707 10.8883L65.9477 10.3848L65.9188 10.3444C65.0364 9.10954 63.1612 9.5311 62.9774 11.0056L62.3407 12.2451L61.9845 15.1036L62.1826 17.3821L63.5352 15.8145L64.0322 15.3826C64.5636 14.9207 65.1572 14.5362 65.7968 14.2395Z" fill="#BABABA" fill-opacity="0.3"/>
<g clip-path="url(#clip1_2209_3291)">
<path d="M61.3746 38.7478L63.1539 36.6766L63.3263 36.4424C63.5684 36.1136 63.9826 35.9652 64.3751 36.0668C64.5137 36.1026 64.643 36.1681 64.7544 36.2589L65.5397 36.8988L66.6849 37.7875L67.7346 38.4541L68.1708 38.7079C68.3733 38.8258 68.4981 39.0442 68.4981 39.2806C68.4981 39.322 68.4942 39.3632 68.4866 39.4038L68 42C67.8268 42.9482 67.3848 43.8249 66.7279 44.5231L66.1601 45.1266C65.7488 45.5637 65.2751 45.9359 64.7547 46.2306L62.0087 47.7856L61.3447 48.0788C60.3064 48.5373 59.1285 47.8365 59.0187 46.695C59.0063 46.5654 58.9791 46.4378 58.9377 46.3146L58.1476 43.9645C57.8733 43.1485 57.9747 42.251 58.4239 41.5189C58.5859 41.2549 58.7891 41.0191 59.0257 40.8209L60.6784 39.4357C60.9286 39.226 61.1615 38.9959 61.3746 38.7478Z" fill="#BABABA" fill-opacity="0.3"/>
<path d="M62.0881 47.9699C62.0941 47.9673 62.0999 47.9644 62.1056 47.9611L64.8516 46.406C65.3893 46.1015 65.8789 45.717 66.3038 45.2653L66.8717 44.6618C67.5551 43.9354 68.015 43.0234 68.1952 42.037C68.1952 42.0369 68.1952 42.0367 68.1953 42.0366L68.6817 39.4413C68.6917 39.3883 68.6967 39.3346 68.6967 39.2806C68.6967 38.9722 68.5339 38.6873 68.2698 38.5336L67.8369 38.2817L66.7983 37.6222L65.6623 36.7406L64.8789 36.1023C64.7454 35.9935 64.5903 35.9149 64.4243 35.872C63.9538 35.7503 63.4573 35.9281 63.1671 36.3222L62.9991 36.5504L61.2248 38.6158C61.0187 38.8557 60.7937 39.0781 60.5518 39.2808L58.899 40.666C58.646 40.8781 58.4286 41.1303 58.2552 41.4128C57.7746 42.1961 57.6661 43.1563 57.9596 44.0293L58.7497 46.3794C58.7862 46.4879 58.8101 46.6003 58.8211 46.7145C58.9439 47.9919 60.2621 48.7762 61.4241 48.2631L62.0881 47.9699Z" stroke="#BABABA" stroke-opacity="0.3" stroke-width="0.4" stroke-linecap="round" stroke-linejoin="round"/>
<path d="M62.4727 6.05195C60.4163 6.71946 59.5182 8.61235 59.4116 12.5492C59.3707 14.2585 59.2901 14.6926 58.568 17.5107C58.2942 18.5389 58.6233 18.2363 59.0468 17.0692C59.3894 16.1272 59.4864 15.5615 59.8246 12.5294C60.27 8.53039 60.3859 8.13209 61.2825 7.31347C62.1514 6.50509 62.7567 6.32377 63.8332 6.50558C65.5323 6.79255 67.0645 7.88707 68.6006 9.90751C69.1225 10.6075 69.7835 11.3609 70.0488 11.5699C70.3994 11.838 70.5648 12.1047 70.6472 12.5067C70.7465 13.0906 71.0248 13.3017 70.9625 12.739C70.9079 12.3269 69.3992 10.0872 68.3558 8.89612C67.0339 7.3894 65.6595 6.51556 64.0362 6.15185C63.2246 5.96999 62.8188 5.93132 62.4727 6.05195Z" fill="black"/>
<path d="M82.8954 14.0082C82.403 14.134 82.0926 14.4994 82.5702 14.3861C83.1867 14.2215 84.7076 14.3441 85.1823 14.5735C86.1816 15.0557 87.0061 16.941 87.0936 18.8959C87.1349 20.052 87.3886 20.0352 87.401 18.8732C87.4289 17.1617 86.7544 15.242 85.8861 14.5581C85.3091 14.0875 83.6655 13.7801 82.8954 14.0082Z" fill="black"/>
<path d="M73.4924 17.9419C73.5131 18.0947 73.5106 18.6464 73.4709 19.177C73.4226 19.9897 73.4024 20.0459 73.3735 19.5336C73.3487 19.2011 73.2773 18.7115 73.2287 18.4645C73.0603 17.6899 72.9319 18.295 73.0545 19.3305C73.1245 20.0438 73.2139 20.2827 73.3509 20.2462C73.4879 20.2096 73.527 20.3207 73.4833 20.6715C73.4505 20.9346 73.4824 21.1041 73.5675 21.0588C73.9338 20.8819 73.9384 17.7636 73.5753 17.7022C73.4975 17.6891 73.4569 17.8016 73.4924 17.9419Z" fill="black"/>
<path d="M87.207 20.0045C87.2015 20.0484 87.0991 20.6579 86.982 21.3843C86.8268 22.4177 86.6759 22.8847 86.3106 23.5841C85.8807 24.3771 85.8108 24.619 85.6948 25.8679C85.468 28.113 85.4459 28.1839 85.0807 28.0327C84.7897 27.9238 84.7153 27.7769 84.8072 27.4641C84.8384 27.3202 84.5513 27.2866 84.2959 27.4226C84.1128 27.511 84.1221 27.5424 84.3166 27.5753C84.5371 27.6125 84.5353 27.6271 84.3264 27.8157C84.1951 27.9129 84.0861 28.0438 84.0824 28.073C84.077 28.1168 84.4124 28.1884 84.8181 28.2271C85.511 28.2993 85.5665 28.2789 85.7213 27.8871C85.8171 27.6496 85.9913 26.7836 86.1229 25.9402C86.3073 24.673 86.4286 24.2309 86.8399 23.375C87.2825 22.4797 87.3413 22.221 87.3784 21.3916C87.3903 20.8712 87.3669 20.3151 87.3167 20.1872C87.2682 20.0447 87.2125 19.9607 87.207 20.0045Z" fill="black"/>
<path d="M80.0821 22.9799C80.0329 23.3745 80.0559 23.7216 80.1207 23.7326C80.1985 23.7457 80.2304 23.9153 80.2049 24.1199C80.1156 24.8361 80.3946 24.5101 80.5911 23.6777C80.7984 22.7576 80.7305 22.1343 80.4947 22.7511L80.3583 23.1012L80.3964 22.6897C80.4597 21.9691 80.175 22.2345 80.0821 22.9799Z" fill="black"/>
<path d="M71.0896 21.282C70.9563 21.2894 70.6935 21.3793 70.5103 21.4677C70.0847 21.6943 68.9853 22.9712 69.2852 22.9025C69.4222 22.8659 69.4853 22.8915 69.4372 22.958C69.295 23.1429 69.9394 23.9233 70.4511 24.1739C70.7885 24.3354 71.1387 24.3945 71.5665 24.3623C72.2481 24.3132 72.781 24.0749 72.6602 23.8754C72.6156 23.8082 72.4952 23.8177 72.3953 23.8755C72.1216 24.0531 71.6012 24.0846 71.6212 23.9238C71.6303 23.8507 71.7894 23.7433 71.9801 23.7009C72.1707 23.6584 72.3316 23.5364 72.3426 23.4487C72.3571 23.3317 72.409 23.3405 72.5353 23.4962C72.6263 23.616 72.7116 23.6752 72.7171 23.6313C72.7426 23.4267 72.2763 21.8555 72.1518 21.6853C71.9439 21.4412 71.4248 21.2491 71.0896 21.282ZM71.8415 22.1565C71.9222 22.2824 72.0448 22.334 72.0468 22.5279C72.0862 23.1592 72.0005 22.9004 71.5937 22.3392C71.4804 22.1857 71.0923 22.4933 71.1215 22.2594C71.1652 21.9086 71.3167 22.164 71.4459 21.9774C71.7183 22.0234 71.716 22.0661 71.8415 22.1565ZM69.9092 22.784C69.8983 22.8717 69.9636 23.0917 70.075 23.2597C70.2293 23.5096 70.2238 23.5535 70.0552 23.525C69.9515 23.5075 69.8158 23.3204 69.7635 23.1026C69.6273 22.6021 69.6327 22.5582 69.8014 22.5867C69.8792 22.5998 69.9219 22.6817 69.9092 22.784Z" fill="black"/>
<path d="M80.5313 25.2197C80.1042 25.5655 80.04 25.868 80.2326 26.7661C80.431 27.7249 80.7156 28.3103 81.0139 28.3606C81.1566 28.3847 81.2546 28.3416 81.2248 28.2619C81.1932 28.1969 81.2519 27.9382 81.3478 27.7007C81.5817 27.0985 81.4689 26.3034 81.0696 25.7882C80.7613 25.3929 80.7538 25.3469 80.9757 25.1605C81.1384 25.0238 81.1605 24.9529 81.0567 24.9354C80.966 24.92 80.7254 25.0436 80.5313 25.2197Z" fill="black"/>
<path d="M77.9023 26.6561C77.5172 26.7702 77.0548 27.0801 77.0311 27.2701C77.022 27.3432 77.2239 27.3176 77.4756 27.2109C78.0178 27.004 79.0869 27.1397 79.5988 27.4948C79.8066 27.6344 80.0332 27.9413 80.0966 28.1759C80.1992 28.5215 80.2345 28.5573 80.3137 28.3468C80.6119 27.4421 79.0519 26.3578 77.9023 26.6561Z" fill="black"/>
<path d="M76.4158 27.9571C76.3684 28.3372 76.5957 28.9576 76.833 29.0723C77.2892 29.3433 78.1442 28.9654 78.2061 28.4684C78.2681 27.9715 77.9679 27.9357 77.528 28.3838C77.1787 28.7426 77.0677 28.7836 76.8895 28.6192C76.7837 28.5118 76.6943 28.2728 76.6902 28.093C76.6802 27.7481 76.4577 27.621 76.4158 27.9571Z" fill="black"/>
<path d="M80.2486 29.082C80.2285 29.2428 80.1068 29.476 79.983 29.6192C79.7686 29.8516 79.7686 29.8516 79.8048 29.4548C79.8722 28.914 79.6333 28.9184 79.4325 29.4665C79.2778 29.8583 79.2928 29.9504 79.4969 30.1191C79.9199 30.4443 80.7917 29.2932 80.4001 28.9285C80.3407 28.8737 80.2668 28.9359 80.2486 29.082Z" fill="black"/>
<path d="M78.5007 29.3987C78.0059 30.1807 78.0421 30.6345 78.5314 29.8964C78.7419 29.5887 78.906 29.2284 78.8983 29.0778C78.8812 28.8959 78.7629 28.9953 78.5007 29.3987Z" fill="black"/>
<path d="M81.0086 29.3596C81.0013 29.4181 81.006 29.9113 81.0071 30.4339C81.0309 31.199 80.9651 31.6207 80.6781 32.5423C80.4812 33.1657 80.214 33.822 80.0884 33.9798C79.8205 34.3226 79.8078 34.4249 79.9764 34.4534C80.2099 34.4928 80.8869 33.2043 81.1867 32.1805C81.4405 31.313 81.4585 31.0623 81.3662 30.3154C81.2721 29.5832 81.0541 28.9942 81.0086 29.3596Z" fill="black"/>
<path d="M77.3718 29.8498C77.3609 29.9374 77.4651 30.164 77.6136 30.3532C77.8737 30.7106 77.8737 30.7106 77.5765 31.1827C77.4103 31.4531 77.2071 31.7023 77.1072 31.7601C76.8537 31.8814 76.5702 31.8186 76.6828 31.6586C76.8251 31.4737 76.7454 31.4751 76.0957 31.6937C75.5719 31.859 75.1059 32.1981 75.0601 32.459C75.0528 32.5175 75.2749 32.4356 75.558 32.2894C75.8559 32.1308 76.2373 32.046 76.417 32.0912C76.5968 32.1365 76.8912 32.1116 77.0448 32.048C77.2114 31.9866 77.3725 31.9691 77.393 32.0173C77.4599 32.1181 78.0134 31.0774 78.048 30.7997C78.0569 30.6221 77.5864 29.7218 77.4567 29.6999C77.4178 29.6934 77.3827 29.7621 77.3718 29.8498Z" fill="black"/>
<path d="M78.6531 30.5139C78.3977 30.6499 78.1832 30.7778 78.1795 30.807C78.1558 30.997 78.6853 30.8924 79.0608 30.6425C79.5954 30.285 79.2896 30.1886 78.6531 30.5139Z" fill="black"/>
<path d="M71.1788 13.2888L74.3336 15.0564L77.3132 16.6822L80.7102 18.8275L81.2358 19.253L81.7339 19.8984L82.4606 21.0314L82.9984 22.1325L83.5361 23.2336L84.0587 25.2302L84.3132 26.2834L84.3651 27.4147L84.3895 28.7659L84.2388 29.9752L84.1292 30.8548L83.9114 31.8283L83.2885 32.9578L82.6792 33.9775L81.8674 35.0752L80.9611 36.1569L80.2041 36.8148L79.5689 37.2688L78.9611 37.5029L77.9345 38.003L77.4201 38.2616L76.5971 38.6752L75.7593 39.2072L75.1653 39.3314L76.0304 38.5795L77.2734 37.8914L78.5971 37.3292L79.6237 36.829L80.597 35.9831L81.3678 35.2153L82.1659 34.2275L82.8833 33.1139L83.3844 32.1883L83.6966 31.2307L83.9006 30.3671L84.0377 29.2678L84.0269 27.8066L83.9354 26.2196L83.5743 24.4748L83.0639 23.1539L82.3647 21.801L81.6654 20.4481L80.7361 19.3931L79.5769 18.636L77.8647 17.6733L75.991 16.4589L74.3595 15.6221L72.1355 14.1239L71.1788 13.2888Z" fill="black"/>
<path d="M75.7593 39.2072L76.5971 38.6752L77.9345 38.003L78.9611 37.5029L79.5689 37.2688L80.2041 36.8148L80.9611 36.1569L81.8674 35.0752L82.6792 33.9775L83.2885 32.9578L83.9114 31.8283L84.1292 30.8548L84.2388 29.9752L84.3895 28.7659L84.3651 27.4147L84.3132 26.2834L84.0587 25.2302L83.5361 23.2336L82.9984 22.1325L82.4606 21.0314L81.7339 19.8984L81.2358 19.253L80.7102 18.8275L77.3132 16.6822L74.3336 15.0564L71.1788 13.2888L72.1355 14.1239L74.3595 15.6221L75.991 16.4589L77.8647 17.6733L79.5769 18.636L80.7361 19.3931L81.6654 20.4481L82.3647 21.801L83.0639 23.1539L83.5743 24.4748L83.9354 26.2196L84.0269 27.8066L84.0377 29.2678L83.9006 30.3671L83.6966 31.2307L83.3844 32.1883L82.8833 33.1139L82.1659 34.2275L81.3678 35.2153L80.597 35.9831L79.6237 36.829L78.5971 37.3292L77.2734 37.8914L76.0304 38.5795L75.1653 39.3314M75.7593 39.2072L76.6245 38.4553M75.7593 39.2072L75.1653 39.3314M75.1653 39.3314L77.4201 38.2616" stroke="black" stroke-width="0.3"/>
<path d="M77.8018 32.7701L77.7661 32.5387C77.7601 32.4995 77.7293 32.468 77.6906 32.4614C77.651 32.4547 77.6131 32.4759 77.5984 32.5128L77.5578 32.6148C77.5458 32.6449 77.5404 32.6774 77.5419 32.7103L77.549 32.8696C77.5524 32.9448 77.6087 33.0089 77.6824 33.0213C77.7428 33.0315 77.7929 33.0768 77.8099 33.1366L77.8362 33.2292C77.8446 33.2589 77.8574 33.2872 77.8741 33.3132L77.9188 33.3829C77.9779 33.475 78.0031 33.5842 77.9898 33.6906L77.9721 33.8328C77.9703 33.8474 77.9738 33.8625 77.9819 33.8753C78.0099 33.9189 78.0739 33.9135 78.0907 33.866L78.1695 33.6421C78.1882 33.5889 78.1808 33.5288 78.1494 33.4799L77.9959 33.2405C77.97 33.2002 77.948 33.1577 77.9299 33.1135L77.8278 32.8636C77.8155 32.8335 77.8068 32.8021 77.8018 32.7701Z" fill="black" stroke="black" stroke-width="0.5" stroke-linejoin="round"/>
<path d="M70.9772 31.8904L70.9518 31.8944C70.8886 31.9043 70.8995 31.9994 70.9639 31.9996C70.9668 31.9996 70.9696 31.9998 70.9725 32.0003L71.7238 32.1272L72.2483 32.2158C72.2763 32.2205 72.3046 32.2226 72.3329 32.2219L72.7804 32.2109C72.8273 32.2097 72.8654 32.2522 72.8595 32.2991C72.8524 32.3566 72.9098 32.403 72.9628 32.3825L73.1943 32.2934C73.2298 32.2797 73.2687 32.2759 73.3071 32.2824L73.3811 32.2949C73.4185 32.3012 73.4564 32.3032 73.494 32.3009L73.9234 32.2742L74.113 32.2624C74.302 32.2507 74.4744 32.1597 74.589 32.0112L74.6325 31.9549C74.637 31.949 74.6408 31.9426 74.6437 31.9358C74.6807 31.8501 74.5809 31.7647 74.5046 31.8168L74.2805 31.9699C74.259 31.9846 74.2342 31.9938 74.2082 31.9969L73.5467 32.0749C73.4922 32.0813 73.4372 32.0831 73.382 32.0802L72.5067 32.0349L71.8221 31.9193C71.7749 31.9113 71.7273 31.9068 71.6797 31.9057L70.9867 31.8898C70.9835 31.8897 70.9804 31.8899 70.9772 31.8904Z" fill="black" stroke="black" stroke-width="0.5" stroke-linejoin="round"/>
<path d="M71.199 35.2301L71.0176 35.3877C70.9583 35.4393 71.019 35.5385 71.0926 35.5102C71.1041 35.5057 71.1166 35.5045 71.129 35.5066L71.3934 35.5513L71.5614 35.5796C71.7008 35.6032 71.8378 35.6426 71.9697 35.6972L72.0023 35.7107C72.1531 35.7731 72.2948 35.8574 72.4227 35.961C72.5272 36.0456 72.641 36.1175 72.7616 36.1751L72.8185 36.2022C72.9022 36.2421 72.983 36.2883 73.0602 36.3403L73.2907 36.4956C73.3555 36.5393 73.4109 36.596 73.4532 36.662C73.5164 36.7605 73.6081 36.8374 73.715 36.8817L74.009 37.0033L74.373 37.177L74.6082 37.2743C74.7566 37.3357 74.9108 37.3801 75.0677 37.4066C75.2246 37.4331 75.3832 37.4415 75.5405 37.4318L75.7897 37.4163L75.8671 37.4144C76.1966 37.4063 76.5145 37.3103 76.7889 37.136L76.9596 37.0416C77.0504 36.9913 77.1564 36.9736 77.261 36.9913L77.3978 37.0144C77.4484 37.0229 77.4992 37.0089 77.5371 36.976L77.5535 36.9617C77.5742 36.9437 77.5875 36.9185 77.591 36.8907C77.5961 36.8494 77.579 36.8074 77.546 36.7807L77.5176 36.7578C77.4609 36.7118 77.384 36.7035 77.3221 36.7366L77.2808 36.7587C77.27 36.7644 77.2587 36.7694 77.2471 36.7734L76.6138 36.9942L76.1763 37.1374C75.8692 37.2379 75.5397 37.2618 75.2153 37.207C75.1038 37.1882 74.9938 37.1602 74.8861 37.1234L74.6972 37.0587C74.4997 36.9911 74.307 36.9083 74.1209 36.8109L73.7667 36.6256L73.1468 36.1841L72.4323 35.7267L71.985 35.465C71.9239 35.4292 71.8595 35.3997 71.793 35.3769L71.3058 35.2101C71.2684 35.1973 71.228 35.2049 71.199 35.2301Z" fill="black" stroke="black" stroke-width="0.5" stroke-linejoin="round"/>
<path d="M62.2771 17.3981L61.9115 18.0098L61.9937 17.3502L62.3456 16.8484L62.8863 16.3784L62.9685 15.7188L62.97 14.9333L63.2656 15.6567L63.2533 14.9811L63.0796 14.0537L63.3356 14.3215L63.4956 15.3588L63.6159 15.9404L64.2511 15.4864L65.1163 14.7345L64.9015 14.1369L65.5078 14.6883L66.0348 14.3283L66.7644 13.8903L66.9137 13.4665L66.8877 12.9008L66.3362 11.9097L66.7536 12.4292L67.3462 13.0905L67.3066 12.6348L67.0644 12.2572L66.7825 11.4238L67.1055 11.9273L67.4955 12.6667L67.8047 13.2802L67.8733 12.7305L67.7666 12.039L67.9144 12.4007L68.021 13.0922L67.9525 13.6419L66.8177 14.2361L66.1963 14.5801L65.4666 15.0182L64.7233 15.5661L63.9937 16.0042L63.3585 16.4582L62.7234 16.9122L62.2771 17.3981Z" fill="black" stroke="black" stroke-width="0.2" stroke-linejoin="round"/>
<path d="M59.2334 21.648L59.1058 22.6914L59.1061 23.5234C59.1063 23.7963 59.1274 24.0679 59.1693 24.3354L59.3459 25.4635L59.6027 27.1028L59.7218 27.8634C59.7678 28.1572 59.8387 28.4452 59.9338 28.7239L60.1499 29.358L60.6027 30.3911L60.8145 30.8127C61.0477 31.2771 61.2082 31.7799 61.2901 32.3027L61.3206 32.4972" stroke="black" stroke-width="0.5" stroke-linecap="round" stroke-linejoin="round"/>
<path d="M71.6143 28.6703C70.2179 28.0768 67.0151 27.5123 67.1835 27.8945C67.2201 27.9776 67.4583 28.0243 67.7188 28.0156C68.5642 27.9936 70.1088 28.3938 71.4267 28.9502C72.1311 29.2433 72.6615 29.3884 72.6102 29.2721C72.559 29.1557 72.1101 28.878 71.6143 28.6703Z" fill="black"/>
<path d="M72.1341 27.8615C70.9402 27.14 68.0444 26.1531 68.1268 26.5005C68.1448 26.576 68.3592 26.6534 68.6056 26.6879C69.4038 26.8051 70.775 27.3882 71.9025 28.0661C72.5059 28.4247 72.9753 28.6314 72.9502 28.5257C72.9251 28.42 72.5585 28.1152 72.1341 27.8615Z" fill="black"/>
<path d="M70.9938 30.2006C69.9253 30.0532 67.4422 30.2416 67.5585 30.4646C67.5838 30.5131 67.7683 30.5021 67.9724 30.4508C68.6348 30.2881 69.8271 30.2818 70.8357 30.4184C71.3749 30.4886 71.784 30.4915 71.7486 30.4236C71.7132 30.3558 71.3733 30.2509 70.9938 30.2006Z" fill="black"/>
<path d="M87.0139 32.3429C85.8247 31.5668 82.7092 31.1579 82.8286 31.4904C82.8546 31.5627 83.0757 31.6079 83.3239 31.606C84.1284 31.605 85.5518 31.9822 86.7438 32.4891C87.3813 32.7562 87.8692 32.8924 87.8329 32.7912C87.7965 32.69 87.4624 32.5322 87.0139 32.3429Z" fill="black"/>
<path d="M86.0434 30.7709C85.2039 30.4545 82.9187 30.582 82.9896 30.7637C83.005 30.8031 83.1663 30.8036 83.3502 30.7732C83.946 30.6775 84.9799 30.7313 85.8357 30.8889C86.2936 30.9708 86.6477 30.9933 86.6261 30.938C86.6045 30.8827 86.3655 30.8293 86.0434 30.7709Z" fill="black"/>
<path d="M85.6938 33.497C84.9258 33.0304 82.43 32.3858 82.4314 32.5232C82.4317 32.5531 82.604 32.6046 82.813 32.6437C83.4893 32.7723 84.5729 33.1345 85.4234 33.5057C85.8794 33.7029 86.2488 33.8295 86.2484 33.7877C86.248 33.7459 86.0143 33.6362 85.6938 33.497Z" fill="black"/>
</g>
<path d="M69.6815 51.6918L69.6681 51.8174C69.6548 51.9425 69.826 51.9882 69.8753 51.8727C69.8924 51.8326 69.9315 51.8066 69.9747 51.8066L70.2731 51.8066C70.372 51.8066 70.4691 51.833 70.5547 51.8831L71.0487 52.1724L71.8816 52.5381L72.8117 53.0828C72.8854 53.1259 72.9533 53.1785 73.0137 53.2392L73.6514 53.8794L74.6925 55.0986L75.213 55.8302L75.7336 56.8056L76.3582 57.903L76.7268 58.6585C76.7586 58.7236 76.7833 58.7921 76.8006 58.8627L76.9241 59.3689C76.9627 59.5273 76.9627 59.6927 76.9241 59.8511L76.8502 60.154C76.801 60.3554 76.6916 60.5365 76.5369 60.6724L76.3582 60.8293L76.0015 61.1078C75.8278 61.2434 75.6146 61.317 75.3952 61.317L74.6339 61.317C74.5347 61.317 74.4361 61.3019 74.3413 61.2723L72.9227 60.8293L70.7364 59.9758L68.6542 59.2442L66.9569 58.8934C66.9086 58.8834 66.8597 58.8771 66.8105 58.8745L64.594 58.7565L62.616 58.7565L61.6463 58.7565C61.5348 58.7565 61.4289 58.7074 61.356 58.6221C61.2957 58.5515 61.2626 58.4613 61.2626 58.368L61.2626 58.0249C61.2626 57.9248 61.1316 57.8893 61.0822 57.9761L61.0683 58.0005C61.0591 58.0165 61.0544 58.0346 61.0544 58.0531L61.0544 58.2051C61.0544 58.577 61.3521 58.8784 61.7194 58.8784L63.0324 58.8784L65.3228 58.8784L67.4389 59.1145C67.4856 59.1197 67.5319 59.1282 67.5774 59.1401L69.383 59.61L71.6734 60.4635L73.554 61.275C73.6188 61.3029 73.6863 61.3238 73.7554 61.3373L74.7042 61.5225C74.8339 61.5478 74.9673 61.5467 75.0965 61.5192L75.8065 61.368C75.9637 61.3345 76.1106 61.2628 76.2345 61.1592L76.657 60.8058C76.735 60.7405 76.8027 60.6636 76.8577 60.5777L76.9272 60.4692C77.0315 60.3063 77.087 60.1163 77.087 59.9222L77.087 59.3025C77.087 59.1833 77.066 59.065 77.0251 58.9533L76.8074 58.3583C76.7856 58.2988 76.7583 58.2414 76.7258 58.1871L76.0459 57.0495L75.3537 55.7755C75.3294 55.7307 75.3017 55.688 75.271 55.6475L74.4843 54.6109L73.7456 53.6377C73.6832 53.5554 73.6086 53.4835 73.5244 53.4243L72.6103 52.782L71.4652 52.1724L70.9039 51.7968C70.7938 51.7231 70.6681 51.6766 70.5369 51.6613L69.8227 51.5776C69.7525 51.5694 69.6891 51.6206 69.6815 51.6918Z" fill="black" stroke="black" stroke-width="0.5" stroke-linecap="round" stroke-linejoin="round"/>
<path d="M67.9774 41.0569L67.9394 40.9473C67.9321 40.9263 67.9284 40.9042 67.9287 40.8822L67.9443 39.2991C67.9448 39.2571 67.9582 39.2168 67.9827 39.1839L68.9544 37.8824C68.9756 37.8539 69.0043 37.8322 69.0374 37.8194L70.3558 37.3116C70.388 37.2992 70.4232 37.2957 70.4579 37.3016L71.8849 37.5426C71.9055 37.5461 71.9256 37.5528 71.9445 37.5625L74.15 38.7001C74.1706 38.7107 74.1895 38.7248 74.2057 38.7418L75.4146 40.0065C75.4446 40.0379 75.4644 40.0778 75.4709 40.1204L75.7275 41.7837L75.7794 42.915L75.8296 44.0106C75.8307 44.0342 75.8276 44.0576 75.8206 44.0799L75.4618 45.2187L75.2038 46.0374C75.1967 46.0598 75.1857 46.0806 75.1713 46.0988L73.7159 47.939C73.7086 47.9482 73.7006 47.9566 73.6918 47.9643L72.0828 49.3626L70.2443 50.9604L68.2033 52.6363L66.284 54.1082L64.1485 55.7681L62.1897 56.8864C62.1806 56.8916 62.1719 56.8976 62.1637 56.9043L60.1705 58.5408C60.1471 58.5601 60.1193 58.5733 60.0894 58.5796L59.5913 58.6837C59.5582 58.6906 59.5236 58.6887 59.4907 58.6782L58.799 58.4567L58.0984 58.2324C58.0712 58.2237 58.0459 58.2093 58.0242 58.1901L56.667 56.9934L55.5525 56.0108C55.5425 56.002 55.5334 55.9923 55.5252 55.9817L53.1432 52.9166C53.1328 52.9032 53.124 52.8886 53.1171 52.8732L51.1653 48.5239L52.5775 51.1197L53.642 53.2993C53.6493 53.3143 53.6585 53.3285 53.6692 53.3415L55.1612 55.1482L56.667 56.9934L58.0242 58.1901C58.0459 58.2093 58.0712 58.2237 58.0984 58.2324L58.799 58.4567L59.7098 58.4001C59.7496 58.3977 59.7871 58.3831 59.8177 58.3583L61.4874 57.0025L63.4874 55.6564L65.3792 54.4044L67.0822 53.1205L68.5825 51.9146L70.3128 50.4107L72.6522 48.5726C72.6605 48.5661 72.6682 48.5589 72.6753 48.5511L74.3416 46.7133L75.4618 45.2187L75.8206 44.0799C75.8276 44.0576 75.8307 44.0342 75.8296 44.0106L75.7794 42.915L75.3581 40.9662C75.3535 40.9451 75.3457 40.9247 75.3349 40.9058L74.6549 39.7205C74.6439 39.7012 74.6299 39.6838 74.6135 39.6689L73.4487 38.6095C73.4334 38.5956 73.4163 38.5841 73.3978 38.5753L72.3593 38.0797C72.3421 38.0715 72.324 38.0658 72.3055 38.0626L71.0445 37.8497C71.0225 37.8459 71.0002 37.846 70.9785 37.8497L70.0524 38.0097C70.0347 38.0128 70.0176 38.0183 70.0015 38.0261L69.0493 38.49C69.0164 38.506 68.9891 38.5312 68.9702 38.5627L68.5325 39.2952C68.5188 39.3183 68.5099 39.3442 68.5065 39.3712L68.3084 40.9611C68.3069 40.9732 68.3066 40.9855 68.3077 40.9977C68.3253 41.2 68.0446 41.2503 67.9774 41.0569Z" fill="black"/>
<path d="M58.0831 43.158L57.9588 42.9505C57.8391 42.7508 57.5446 42.8874 57.6266 43.1045L58.1849 44.7553C58.1885 44.7659 58.1913 44.7767 58.1931 44.7877L58.5744 47.064C58.5764 47.0758 58.5794 47.0874 58.5834 47.0987L59.2088 48.8819C59.2506 49.0011 59.387 49.0577 59.4942 49.0005L61.0263 48.182C61.0388 48.1754 61.0521 48.1701 61.0659 48.1664L63.3159 47.5561C63.3323 47.5516 63.3481 47.545 63.3627 47.5364L65.0986 46.5084C65.1066 46.5037 65.1143 46.4983 65.1215 46.4924L66.9019 45.0407C66.924 45.0227 66.9417 44.9999 66.9538 44.9739L67.8479 43.0554C67.8539 43.0427 67.8578 43.0291 67.8595 43.015L67.8946 42.7332C67.9086 42.621 67.7534 42.5718 67.7091 42.6745L67.0474 44.2067C67.0368 44.2312 67.0213 44.2531 67.0019 44.271L65.1937 45.9382C65.184 45.9471 65.1735 45.955 65.1621 45.9617L63.4288 46.9881C63.4158 46.9958 63.4018 47.0019 63.3873 47.0063L61.5276 47.5694C61.5127 47.5739 61.4984 47.5802 61.4851 47.5882L59.5581 48.7451C59.441 48.8154 59.2857 48.7427 59.2571 48.6043L58.9552 47.1455L58.5544 44.945L58.1065 43.2137C58.1014 43.1942 58.0935 43.1754 58.0831 43.158Z" fill="black"/>
<path d="M56.667 56.9934L58.0242 58.1901C58.0459 58.2093 58.0712 58.2237 58.0984 58.2324L58.799 58.4567M56.667 56.9934L55.5525 56.0108C55.5425 56.002 55.5334 55.9923 55.5252 55.9817L53.1432 52.9166C53.1328 52.9032 53.124 52.8886 53.1171 52.8732L51.1653 48.5239L52.5775 51.1197L53.642 53.2993C53.6493 53.3143 53.6585 53.3285 53.6692 53.3415L55.1612 55.1482L56.667 56.9934ZM58.799 58.4567L59.4907 58.6782C59.5236 58.6887 59.5582 58.6906 59.5913 58.6837L60.0894 58.5796C60.1193 58.5733 60.1471 58.5601 60.1705 58.5408L62.1637 56.9043C62.1719 56.8976 62.1806 56.8916 62.1897 56.8864L64.1485 55.7681L66.284 54.1082L68.2033 52.6363L70.2443 50.9604L72.0828 49.3626L73.6918 47.9643C73.7006 47.9566 73.7086 47.9482 73.7159 47.939L75.1713 46.0988C75.1857 46.0806 75.1967 46.0598 75.2038 46.0374L75.4618 45.2187M58.799 58.4567L59.7098 58.4001C59.7496 58.3977 59.7871 58.3831 59.8177 58.3583L61.4874 57.0025L63.4874 55.6564L65.3792 54.4044L67.0822 53.1205L68.5825 51.9146L70.3128 50.4107L72.6522 48.5726C72.6605 48.5661 72.6682 48.5589 72.6753 48.5511L74.3416 46.7133L75.4618 45.2187M75.4618 45.2187L75.8206 44.0799C75.8276 44.0576 75.8307 44.0342 75.8296 44.0106L75.7794 42.915M75.7794 42.915L75.7275 41.7837L75.4709 40.1204C75.4644 40.0778 75.4446 40.0379 75.4146 40.0065L74.2057 38.7418C74.1895 38.7248 74.1706 38.7107 74.15 38.7001L71.9445 37.5625C71.9256 37.5528 71.9055 37.5461 71.8849 37.5426L70.4579 37.3016C70.4232 37.2957 70.388 37.2992 70.3558 37.3116L69.0374 37.8194C69.0043 37.8322 68.9756 37.8539 68.9544 37.8824L67.9827 39.1839C67.9582 39.2168 67.9448 39.2571 67.9443 39.2991L67.9287 40.8822C67.9284 40.9042 67.9321 40.9263 67.9394 40.9473L67.9774 41.0569C68.0446 41.2503 68.3253 41.2 68.3077 40.9977V40.9977C68.3066 40.9855 68.3069 40.9732 68.3084 40.9611L68.5065 39.3712C68.5099 39.3442 68.5188 39.3183 68.5325 39.2952L68.9702 38.5627C68.9891 38.5312 69.0164 38.506 69.0493 38.49L70.0015 38.0261C70.0176 38.0183 70.0347 38.0128 70.0524 38.0097L70.9785 37.8497C71.0002 37.846 71.0225 37.8459 71.0445 37.8497L72.3055 38.0626C72.324 38.0658 72.3421 38.0715 72.3593 38.0797L73.3978 38.5753C73.4163 38.5841 73.4334 38.5956 73.4487 38.6095L74.6135 39.6689C74.6299 39.6838 74.6439 39.7012 74.6549 39.7205L75.3349 40.9058C75.3457 40.9247 75.3535 40.9451 75.3581 40.9662L75.7794 42.915ZM58.5544 44.945L58.1065 43.2137C58.1014 43.1942 58.0935 43.1754 58.0831 43.158L57.9588 42.9505C57.8391 42.7508 57.5446 42.8874 57.6266 43.1045V43.1045L58.1849 44.7553C58.1885 44.7659 58.1913 44.7767 58.1931 44.7877L58.5744 47.064C58.5764 47.0758 58.5794 47.0874 58.5834 47.0987L59.2088 48.8819C59.2506 49.0011 59.387 49.0577 59.4942 49.0005L61.0263 48.182C61.0388 48.1754 61.0521 48.1701 61.0659 48.1664L63.3159 47.5561C63.3323 47.5517 63.3481 47.545 63.3627 47.5364L65.0986 46.5084C65.1066 46.5037 65.1143 46.4983 65.1215 46.4924L66.9019 45.0407C66.924 45.0227 66.9417 44.9999 66.9538 44.9739L67.8479 43.0554C67.8539 43.0427 67.8578 43.0291 67.8595 43.015L67.8946 42.7332C67.9086 42.621 67.7534 42.5718 67.7091 42.6745V42.6745L67.0474 44.2067C67.0368 44.2312 67.0213 44.2531 67.0019 44.271L65.1937 45.9382C65.184 45.9471 65.1735 45.955 65.1621 45.9617L63.4288 46.9881C63.4158 46.9958 63.4018 47.0019 63.3873 47.0063L61.5276 47.5694C61.5127 47.5739 61.4984 47.5802 61.4851 47.5882L59.5581 48.7451C59.441 48.8154 59.2857 48.7427 59.2571 48.6043L58.9552 47.1455L58.5544 44.945Z" stroke="black" stroke-width="0.5" stroke-linejoin="round"/>
<path d="M57.572 21.8793L58.8179 19.6202L58.2072 21.4253L57.4075 23.1986L56.5517 26.1972L55.1565 28.8801L53.9669 29.914L51.0347 31.7761L48.2518 33.2144L44.8337 35.1067L41.536 37.5806L39.0609 40.4179L37.1265 42.7853L34.1473 48.1193L32.1826 52.2776L30.2026 57.3314L28.6279 62.2291L27.5528 66.9867L26.531 72.09L25.4284 77.0675L25.8258 73.8792L26.9694 68.5719L27.9501 63.7984L29.2675 59.4185L30.76 55.1805L32.3059 51.2882L34.3117 46.8L36.8432 42.7374L39.8057 39.0844L42.2534 36.4669L45.9152 34.1668L48.9144 32.5405L52.1162 30.8362L54.4543 29.0983L55.9028 26.7611L56.7983 24.2182L57.572 21.8793Z" fill="black" stroke="black" stroke-width="0.4" stroke-linejoin="round"/>
<path d="M25.9022 73.6813L25.9022 73.5456L25.8117 73.4423L25.8117 73.4422L25.8116 73.4421L25.8107 73.4411L25.8063 73.4361L25.7878 73.4145C25.78 73.4054 25.7702 73.3939 25.7587 73.3802C25.7457 73.3649 25.7305 73.3468 25.7131 73.3259C25.6472 73.2467 25.5498 73.1277 25.426 72.9707C25.1783 72.6567 24.825 72.1906 24.4057 71.5863L24.3852 71.5568L24.3594 71.5319C23.1602 70.3696 22.8274 70.0621 22.5131 69.7366C22.2294 69.4428 21.9607 69.1344 21.0838 68.1701C18.8219 64.8639 17.7296 61.6169 17.7694 58.6551C17.8093 55.6935 18.9809 52.9857 21.3058 50.753L21.3065 50.7523C23.9535 48.1956 26.5425 47.1628 29.1347 47.5009C29.8214 47.5904 30.3913 47.6446 30.8646 47.6494C31.3364 47.6541 31.7339 47.6101 32.0658 47.489C32.7751 47.23 33.0797 46.6603 33.2776 45.8699C33.3407 45.6573 33.3993 45.5438 33.4682 45.471C33.5312 45.4044 33.6317 45.3419 33.8445 45.3005C34.0646 45.2578 34.3776 45.2429 34.8396 45.256C35.2977 45.2689 35.8814 45.3086 36.635 45.3666C37.6738 45.4619 38.5036 45.5263 39.1538 45.5515C39.7984 45.5766 40.2913 45.5646 40.6435 45.4966C40.9778 45.432 41.3161 45.2907 41.423 44.9384C41.4726 44.7751 41.456 44.6101 41.417 44.4642C41.3781 44.3186 41.3108 44.1689 41.2314 44.0202L41.2315 44.0201L41.2265 44.0114C40.9865 43.5906 41.026 43.4094 41.0522 43.361C41.0741 43.3205 41.1707 43.2273 41.4934 43.2429C42.117 43.2729 43.1559 43.7129 44.1325 44.6143L44.1324 44.6144L44.1376 44.6189C44.4559 44.902 44.7177 45.1277 44.9344 45.2927C45.1437 45.4521 45.3454 45.5826 45.5397 45.6389C45.6435 45.669 45.7569 45.6817 45.8732 45.6583C45.9914 45.6346 46.0889 45.5785 46.1677 45.5074C46.3104 45.3785 46.4039 45.1872 46.479 45.0084C46.6256 44.6664 46.603 44.1904 46.5129 43.7058C46.4191 43.2016 46.2375 42.6156 45.9952 42.007C45.5113 40.7911 44.7683 39.4418 43.9376 38.4176L43.937 38.417C43.6378 38.0498 43.4042 37.7415 43.2332 37.493C43.3583 37.5802 43.5006 37.685 43.6607 37.8086C44.0672 38.1299 44.4205 38.3645 44.7221 38.5178C45.016 38.6673 45.2971 38.7586 45.5457 38.7446C45.6761 38.7372 45.8053 38.7003 45.9171 38.6199C46.0297 38.539 46.1041 38.4285 46.1476 38.3086C46.2298 38.0822 46.2055 37.8152 46.143 37.5637C46.0149 37.0492 45.673 36.3911 45.1731 35.7007C44.6688 35.0042 43.9874 34.2523 43.1555 33.551C42.1089 32.661 41.4214 32.1357 40.4187 31.7821C39.4384 31.4364 38.1687 31.2596 35.9727 30.9999C30.2151 30.2492 25.554 30.7697 22.6628 32.5583C22.0767 32.9106 21.6344 33.1584 21.301 33.3033C21.1345 33.3757 21.0082 33.4165 20.9138 33.4342C20.8261 33.4507 20.7873 33.443 20.7775 33.4402C20.7758 33.4379 20.7728 33.4337 20.7689 33.4266C20.7514 33.3948 20.7274 33.3273 20.7121 33.1999C20.6813 32.9427 20.6975 32.5543 20.7512 31.9965C20.7923 31.5694 20.7708 31.1545 20.7032 30.8311C20.6698 30.6716 20.6214 30.5159 20.5516 30.3883C20.4924 30.28 20.3614 30.0905 20.1255 30.0597C20.0094 30.0446 19.8968 30.0659 19.8043 30.0932C19.7074 30.1217 19.606 30.1649 19.5034 30.2165C19.2982 30.3198 19.0604 30.4714 18.8019 30.6568C18.2834 31.0288 17.6507 31.5595 16.9788 32.1784C15.6352 33.4157 14.1092 35.029 12.9895 36.4853C12.4151 37.2116 11.8596 37.8834 11.427 38.3689C11.244 38.5743 11.0864 38.7425 10.9606 38.8663C10.9139 38.6211 10.8834 38.2713 10.8789 37.8625C10.8779 37.5201 10.8744 37.2413 10.8544 37.0574C10.8459 36.9796 10.8297 36.8569 10.7747 36.7553C10.7454 36.7011 10.6703 36.5889 10.5207 36.5484C10.367 36.5068 10.2488 36.5711 10.1957 36.6089C10.101 36.6765 10.0358 36.7847 9.99624 36.8543C9.94716 36.9406 9.8933 37.0515 9.83424 37.1821C9.71574 37.4443 9.56276 37.8168 9.36702 38.2995L9.36696 38.2995L9.36459 38.3057C8.94638 39.3974 7.73151 41.6268 6.70241 43.2574C5.60268 44.9211 4.18422 48.0917 3.45325 50.3767C2.83454 52.2742 2.50112 53.3772 2.37158 54.4123C2.24118 55.4543 2.31897 56.4144 2.48664 58.0159L2.48662 58.0159L2.48705 58.0196C3.30229 65.0983 7.21995 71.9593 13.6114 77.5024L13.6128 77.5036C18.6608 81.8363 20.7014 83.3843 23.0719 85.1825C23.1626 85.2513 23.2537 85.3204 23.3456 85.3901L23.3913 85.4248L23.445 85.4436L26.308 86.4434L26.3646 86.4632L26.4239 86.4632L28.428 86.4632L29.203 86.4632L28.6696 85.8787L25.4477 82.3488C25.0997 81.7871 24.9231 81.3551 24.9129 80.6903C24.9021 79.9814 25.0805 78.9993 25.5094 77.3382C25.9042 75.8092 25.9035 75.0979 25.9023 73.8882C25.9023 73.8209 25.9022 73.7519 25.9022 73.6813Z" fill="white" stroke="black" stroke-width="0.7"/>
<defs>
<clipPath id="clip0_2209_3291">
<rect width="61.8401" height="33.3271" fill="white" transform="translate(27.8439 56.6729)"/>
</clipPath>
<clipPath id="clip1_2209_3291">
<rect width="39.4618" height="50.9634" fill="white" transform="matrix(0.986036 0.166534 -0.12368 0.992322 51.0893 2.71162)"/>
</clipPath>
</defs>
</svg>
